<svg version="1.2" xmlns="http://www.w3.org/2000/svg" viewBox="0 0 600 600" width="600" height="600"><style>tspan{white-space:pre}.a{fill:none;stroke:#25786e;stroke-miterlimit:100;stroke-width:20}</style><path fill-rule="evenodd" class="a" d="m399 45.4l156.3 156.3c8.9 9 8.9 23.5 0 32.5l-321 321.1c-9 9-23.6 9-32.5 0l-156.3-156.3c-9-8.9-9-23.5 0-32.5l320.9-321.1c9-9 23.6-9 32.6 0z"/><path fill-rule="evenodd" class="a" d="m233.5 44l66.5 66.5-190.2 190.2-66.5-66.4c-9-9-9-23.6 0-32.5l157.7-157.8c8.9-8.9 23.5-8.9 32.5 0zm322.5 322.4c9 9 9 23.6 0 32.6l-157.7 157.7c-9 8.9-23.5 9-32.5 0l-67.2-67.2 190.2-190.2z"/><path fill-rule="evenodd" class="a" d="m315.5 59.6l225.6 225.5c9 9 9 23.6 0 32.5l-16.9 17-34.7-34.6 32.5-32.6-190.2-190.1-32.5 32.5-33.3-33.2 17-17c9-9 23.5-9 32.5 0zm0.8 482.9c-9 9-23.5 9-32.5 0l-225.6-225.5c-9-9-9-23.5 0-32.5l16.9-17 33.3 33.2-32.5 32.6 190.9 190.9 32.5-32.6 34 34z"/></svg>